<svg xmlns="http://www.w3.org/2000/svg" viewBox="-10 -10 41 71" fill="#fff" fill-rule="evenodd" stroke="#000" stroke-linecap="round" stroke-linejoin="round" font-family="Roboto" font-size="14" text-anchor="middle"><style><![CDATA[.B{fill:#000}.C{text-anchor:end}.D{font-size:10px}.E{stroke:none}.F{stroke-width:.5}]]></style><use href="#A" x=".5" y=".5"/><symbol id="A" overflow="visible"><g transform="matrix(0 -1 1 0 7.5 26.25)"><path d="M0 0h.5v5H0z" class="B F"/></g><g transform="matrix(0 -1 1 0 5 28)"><path d="M0 0v10" fill="none" class="F"/></g><g transform="matrix(0 -1 1 0 5 24)"><path d="M0 0v10" fill="none" class="F"/></g><g transform="matrix(0 -1 1 0 7.5 22.25)"><path d="M0 0h.5v5H0z" class="B F"/></g><g transform="matrix(0 -1 1 0 5 20)"><path d="M0 0v10" fill="none" class="F"/></g><g transform="matrix(0 -1 1 0 10 20)"><path d="M20 0H0" fill="none" class="F"/></g><g transform="matrix(0 -1 1 0 7.5 30.25)"><path d="M0 0h.5v5H0z" class="B F"/></g><g transform="matrix(0 -1 1 0 10 50)"><path d="M0 0h20" fill="none" class="F"/></g></symbol></svg>