<svg xmlns="http://www.w3.org/2000/svg" viewBox="-10 -10 51 71" fill="#fff" fill-rule="evenodd" stroke="#000" stroke-linecap="round" stroke-linejoin="round" font-family="Roboto" font-size="14" text-anchor="middle"><use href="#A" x=".5" y=".5"/><symbol id="A" overflow="visible"><path d="M10 0v50" fill="none" stroke-width=".5"/><circle cx="10" cy="25" fill="none" r="6.25" stroke-width=".5"/><path d="M25 25h-8.5" fill="none" stroke-width=".5"/><path d="M8.5 26.5L11 24" fill="none" stroke-width=".5"/><path fill="#000" d="M12.615 22.76q.109-.543.597-.516.489 0 .543.489 0 .597-.57.597-.326 0-.326 0 0 0 0 .326 0 0 .407 0 .516.082.516.543 0 .598-.57.598-.625-.027-.598-.543-.407 0-.407 0 0 .869 1.005.869.842 0 .951-.652.136-.733-.516-1.005.462-.136.489-.652 0-.924-.978-.924-.896.054-.924.869.054 0 .38 0" stroke-width=".1"/></symbol></svg>