<svg xmlns="http://www.w3.org/2000/svg" viewBox="-10 -10 41 71" fill="#fff" fill-rule="evenodd" stroke="#000" stroke-linecap="round" stroke-linejoin="round" font-family="Roboto" font-size="14" text-anchor="middle"><style><![CDATA[.B{font-size:8px}.C{fill:#000}.D{stroke:none}.E{stroke-width:.5}.F{fill:none}]]></style><use href="#A" x=".5" y=".5"/><symbol id="A" overflow="visible"><path d="M10 0v20" class="E F"/><path d="M10 50V30" class="E F"/><path d="M0 20h20v10H0z" class="E"/><path d="M12.125 22.5l3.75 2.5-3.75 2.5" class="E F"/><path d="M3.5 22.5v5" class="E F"/><path d="M2.25 22.5h2.5" class="E F"/><path d="M2.25 27.5h2.5" class="E F"/><path d="M9.5 26.685v-1.871" class="E F"/><path d="M9.5 22.5v2.314" class="E F"/><path d="M9.5 26.686c-.287.49-.795.814-1.375.814-.9 0-1.625-.781-1.625-1.75S7.225 24 8.125 24c.58 0 1.088.324 1.375.814" class="E F"/><path d="M9.5 27.75v-1.064" class="E F"/></symbol></svg>