<svg xmlns="http://www.w3.org/2000/svg" viewBox="-10 -10 51 71" fill="#fff" fill-rule="evenodd" stroke="#000" stroke-linecap="round" stroke-linejoin="round" font-family="Roboto" font-size="14" text-anchor="middle"><style><![CDATA[.B{fill:#000}.C{text-anchor:end}.D{font-size:10px}.E{stroke:none}.F{stroke-width:.5}]]></style><use href="#A" x=".5" y=".5"/><symbol id="A" overflow="visible"><g transform="matrix(0 -1 1 0 14.9147 29.9993)"><path d="M10 0v10.071L0 5.035z" class="F"/></g><g transform="matrix(0 -1 1 0 19.9927 20)"><path d="M20 0H0" fill="none" class="F"/></g><g transform="matrix(0 -1 1 0 19.9927 50)"><path d="M0 0h20" fill="none" class="F"/></g><g transform="matrix(.173648 .984808 -.984808 .173648 10.987484 27.137849)"><path d="M0 0l.976 3.206L1.952 0z" class="B F"/></g><g transform="matrix(-.642788 .766044 -.766044 -.642788 14.908822 27.339332)"><path d="M2.894 2.345L0 0" fill="none" class="F"/></g><g transform="matrix(.173648 .984808 -.984808 .173648 10.987484 22.996649)"><path d="M0 0l.976 3.206L1.952 0z" class="B F"/></g><g transform="matrix(-.642788 .766044 -.766044 -.642788 14.908722 23.198132)"><path d="M2.894 2.345L0 0" fill="none" class="F"/></g><g transform="matrix(0 -1 1 0 14.9147 29.9993)"><path d="M0 0v10.071" fill="none" class="F"/></g></symbol></svg>