<svg xmlns="http://www.w3.org/2000/svg" viewBox="-10 -10 41 51" fill="#fff" fill-rule="evenodd" stroke="#000" stroke-linecap="round" stroke-linejoin="round" font-family="Roboto" font-size="14" text-anchor="middle"><style><![CDATA[.B{fill:#000}.C{text-anchor:end}.D{font-size:10px}.E{stroke:none}]]></style><use href="#A" x=".5" y=".5"/><symbol id="A" overflow="visible"><path d="M0 15h20v10H0z" stroke-width=".5"/><path d="M10 0v15" fill="none" stroke-width=".5"/><g class="E"><path d="M5.438 19.601v.613H2.973v2.016h2.863v.613H2.223v-5.687h3.574v.617H2.973v1.828h2.465z" class="B"/><path d="M7.254 17.156l1.371 2.18 1.363-2.18h.883l-1.797 2.82 1.84 2.867h-.891l-1.398-2.219-1.406 2.219h-.887l1.844-2.867-1.801-2.82h.879z" class="B"/><path d="M12.59 17.156v5.688h-.75v-5.687h.75z" class="B"/><path d="M17.777 17.156v.617h-1.828v5.07h-.746v-5.07h-1.824v-.617h4.398z" class="B"/></g></symbol></svg>