<svg xmlns="http://www.w3.org/2000/svg" viewBox="-10 -10 51 51" fill="#fff" fill-rule="evenodd" stroke="#000" stroke-linecap="round" stroke-linejoin="round" font-family="Roboto" font-size="14" text-anchor="middle"><style><![CDATA[.B{fill:#000}.C{text-anchor:end}.D{font-size:10px}.E{stroke:none}.F{stroke-width:.5}]]></style><use href="#A" x=".5" y=".5"/><symbol id="A" overflow="visible"><path d="M10 0v10A9.98 9.98 0 0 0 0 20a9.98 9.98 0 0 0 10 10" fill="none" class="F"/><g transform="matrix(.258819 .965926 -.965926 .258819 20.707454 15.209555)"><path d="M0 3.082L1.085 0l1.086 3.082z" fill-opacity=".99" class="B F"/></g><g transform="matrix(.965926 -.258819 .258819 .965926 15.01287 17.82291)"><path d="M0 0h3.361" fill="none" class="F"/></g><g transform="matrix(.258819 -.965926 .965926 .258819 17.730753 23.992794)"><path d="M0 0l1.085 3.082L2.171 0z" fill-opacity=".99" class="B F"/></g><g transform="matrix(.965926 .258819 -.258819 .965926 15.01287 22.17679)"><path d="M0 0h3.361" fill="none" class="F"/></g><path d="M15 15L5 25" fill="none" class="F"/><path d="M5 15l10 10" fill="none" class="F"/></symbol></svg>