<svg xmlns="http://www.w3.org/2000/svg" viewBox="-10 -10 41 41" fill="#fff" fill-rule="evenodd" stroke="#000" stroke-linecap="round" stroke-linejoin="round" font-family="Roboto" font-size="14" text-anchor="middle"><use href="#A" x=".5" y=".5"/><symbol id="A" overflow="visible"><path d="M0 0h20v20H0z" stroke-width=".5"/><g stroke="none"><path d="M8.346 10.991V6.952H9.1v4.027q0 .816-.49 1.277-.49.461-1.307.461-.848 0-1.32-.434-.473-.434-.473-1.215h.75q0 .488.268.762.268.273.775.273.465 0 .752-.293.287-.293.291-.82z" fill="#000"/><path d="M12.35 12.64h-1.973V6.952h1.859q.926 0 1.393.383.467.383.467 1.133 0 .398-.227.705-.227.307-.617.475.461.129.729.49.268.361.268.861 0 .766-.496 1.203-.496.438-1.402.438zm.027-2.66h-1.25v2.047h1.238q.523 0 .826-.271.303-.271.303-.748 0-1.027-1.117-1.027zm-1.25-2.41v1.809h1.133q.492 0 .787-.246.295-.246.295-.668 0-.469-.273-.682-.273-.213-.832-.213h-1.109z" fill="#000"/></g></symbol></svg>