<svg xmlns="http://www.w3.org/2000/svg" viewBox="-10 -10 41 61" fill="#fff" fill-rule="evenodd" stroke="#000" stroke-linecap="round" stroke-linejoin="round" font-family="Roboto" font-size="14" text-anchor="middle"><style><![CDATA[.B{fill:#000}.C{text-anchor:end}.D{font-size:10px}.E{stroke:none}.F{stroke-width:.5}]]></style><use href="#A" x=".5" y=".5"/><symbol id="A" overflow="visible"><path d="M0 10h20v30H0z" class="F"/><path d="M0 20h20" fill="none" class="F"/><path d="M10 0v10" fill="none" class="F"/><g class="E"><path d="M4.813 31.98l-.814-1.271-.305.305v.967h-.847v-4.5h.847v2.493l.164-.211.812-.952h1.017L4.54 30.131l1.245 1.849h-.973z" class="B"/><path d="M6.65 28.81l.589 2.136.589-2.136h.885l-1.069 3.17h-.809l-1.069-3.17h.885z" class="B"/><path d="M11.732 31.98h-.856q-.059-.114-.085-.284-.308.343-.8.343-.466 0-.772-.27-.306-.27-.306-.68 0-.504.373-.773.374-.27 1.08-.272h.39v-.182q0-.22-.113-.352-.113-.132-.356-.132-.214 0-.335.103-.122.102-.122.281h-.847q0-.275.17-.51.17-.234.481-.368.311-.133.697-.133.586 0 .93.294.344.294.344.828v1.374q.003.451.126.683v.05zm-1.556-.589q.188 0 .346-.083.158-.084.234-.224v-.545h-.316q-.636 0-.677.44l-.003.05q0 .158.111.261.111.103.305.103z" class="B"/><path d="M14.05 28.789l-.012.814q-.173-.023-.305-.023-.48 0-.63.325v2.074h-.847v-3.17h.8l.023.378q.255-.436.706-.436.141 0 .264.038z" class="B"/><path d="M15.272 27.48v1.676q.337-.404.847-.404 1.031 0 1.046 1.198v2.03h-.847v-2.007q0-.272-.117-.403-.117-.13-.39-.13-.372 0-.539.287v2.253h-.847v-4.5h.847z" class="B"/></g></symbol></svg>