<svg xmlns="http://www.w3.org/2000/svg" viewBox="-10 -10 41 61" fill="#fff" fill-rule="evenodd" stroke="#000" stroke-linecap="round" stroke-linejoin="round" font-family="Roboto" font-size="14" text-anchor="middle"><style><![CDATA[.B{fill:#000}.C{text-anchor:end}.D{font-size:10px}.E{stroke:none}.F{stroke-width:.5}]]></style><use href="#A" x=".5" y=".5"/><symbol id="A" overflow="visible"><path d="M0 10h20v30H0z" class="F"/><path d="M0 20h20" fill="none" class="F"/><path d="M10 0v10" fill="none" class="F"/><g class="E"><path d="M6.386 31.98l-.814-1.271-.305.305v.967H4.42v-4.5h.847v2.493l.164-.211.812-.952h1.017l-1.146 1.321 1.245 1.849h-.973z" class="B"/><path d="M10.302 27.714l.7 3.035.574-3.035h.876l-.946 4.266h-.885l-.694-2.854-.694 2.854h-.885l-.946-4.266h.876l.577 3.029.703-3.029h.744z" class="B"/><path d="M13.699 27.48v1.676q.337-.404.847-.404 1.031 0 1.046 1.198v2.03h-.847v-2.007q0-.272-.117-.403-.117-.13-.39-.13-.372 0-.539.287v2.253h-.847v-4.5h.847z" class="B"/></g></symbol></svg>