<svg xmlns="http://www.w3.org/2000/svg" viewBox="-10 -10 41 71" fill="#fff" fill-rule="evenodd" stroke="#000" stroke-linecap="round" stroke-linejoin="round" font-family="Roboto" font-size="14" text-anchor="middle"><style><![CDATA[.B{fill:#000}.C{stroke:none}.D{text-anchor:end}.E{font-size:10px}.F{stroke-width:.5}]]></style><use href="#A" x=".5" y=".5"/><symbol id="A" overflow="visible"><circle cx="10" cy="25" r="10" class="F"/><path d="M10 0v15" fill="none" class="F"/><path d="M10 50V35" fill="none" class="F"/><path d="M15.952 27.376c0-1.25 0-5 1.25-3.75s-3.75 2.5-2.5 0" fill="none" class="F"/><path d="M3.814 26.582q.273 0 .444-.15.171-.15.178-.4h.926q-.003.376-.205.689-.202.313-.552.485-.35.173-.774.173-.793 0-1.251-.504-.458-.504-.458-1.393v-.065q0-.854.455-1.364.455-.509 1.247-.509.694 0 1.113.395.419.395.425 1.051h-.926q-.007-.287-.178-.467-.171-.179-.451-.179-.345 0-.521.251-.176.251-.176.815v.103q0 .571.174.82.174.249.53.249z" class="B C"/><path d="M5.772 25.471v-.044q0-.55.212-.981.212-.431.61-.666.398-.236.925-.236.748 0 1.222.458.473.458.528 1.244l.007.253q0 .851-.475 1.365-.475.514-1.275.514-.8 0-1.277-.513-.477-.513-.477-1.395zm.988.027q0 .526.198.805.198.279.567.279.359 0 .561-.275.202-.275.202-.88 0-.516-.202-.8-.202-.284-.567-.284-.362 0-.561.282-.198.282-.198.873z" class="B C"/><path d="M11.887 26.288q0-.181-.179-.285-.179-.104-.576-.186-1.319-.277-1.319-1.121 0-.492.409-.822.408-.33 1.068-.33.704 0 1.126.331.422.332.422.861h-.988q0-.212-.137-.35-.137-.138-.427-.138-.25 0-.386.113-.137.113-.137.287 0 .164.155.265.155.101.525.174.369.074.622.166.783.287.783.995 0 .506-.434.819-.434.313-1.121.313-.465 0-.825-.166-.361-.166-.566-.455-.205-.289-.205-.624h.937q.014.263.195.403.181.14.485.14.284 0 .429-.108.145-.108.145-.282z" class="B C"/></symbol></svg>