<svg xmlns="http://www.w3.org/2000/svg" viewBox="-10 -10 41 61" fill="#fff" fill-rule="evenodd" stroke="#000" stroke-linecap="round" stroke-linejoin="round" font-family="Roboto" font-size="14" text-anchor="middle"><style><![CDATA[.B{text-anchor:end}.C{font-size:10px}.D{stroke:none}.E{stroke-width:.5}]]></style><use href="#A" x=".5" y=".5"/><symbol id="A" overflow="visible"><path d="M8.457 19h-1.8C6.657 25 1 21.25 1 31.25q0 2.5 2.571 2.5h12.857q2.571 0 2.571-2.5c0-10-5.657-6.25-5.657-12.25h-1.8v1H8.457z" class="E"/><ellipse cx="10" cy="27.5" fill="none" rx="4.25" ry="3" class="E"/><path d="M6.429 17.501h7.143q1.191 0 1.191 1.5v2q0 1.5 2.381 1.5h.476q2.381 0 2.381-2.5v-3.75q0-1.5-2.381-2.5c-2.857-1.25-12.381-1.25-15.238 0Q0 14.751 0 16.251v3.75q0 2.5 2.381 2.5h.476q2.381 0 2.381-1.5v-2q0-1.5 1.191-1.5z" class="E"/><path d="M10 0v12.75" fill="none" class="E"/></symbol></svg>