<svg xmlns="http://www.w3.org/2000/svg" viewBox="-10 -10 41 71" fill="#fff" fill-rule="evenodd" stroke="#000" stroke-linecap="round" stroke-linejoin="round" font-family="Roboto" font-size="14" text-anchor="middle"><style><![CDATA[.B{fill:#000}.C{text-anchor:end}.D{font-size:10px}.E{stroke:none}.F{stroke-width:.5}]]></style><use href="#A" x=".5" y=".5"/><symbol id="A" overflow="visible"><circle cx="10" cy="25" r="10" class="F"/><path d="M10 0v15" fill="none" class="F"/><path d="M10 50V35" fill="none" class="F"/><g class="E"><path d="M5.635 23.413l.785 2.848.785-2.848h1.18L6.959 27.64H5.881l-1.426-4.227h1.18z" class="B"/><path d="M12.412 27.64h-1.141q-.078-.152-.113-.379-.41.457-1.066.457-.621 0-1.029-.359-.408-.359-.408-.906 0-.672.498-1.031.498-.359 1.44-.363h.52v-.242q0-.293-.15-.469-.15-.176-.475-.176-.285 0-.447.137-.162.137-.162.375H8.748q0-.367.226-.68.227-.312.641-.49.414-.178.93-.178.781 0 1.24.393.459.393.459 1.103v1.832q.004.602.168.91v.066zm-2.074-.785q.25 0 .461-.111.211-.111.313-.299v-.727h-.422q-.848 0-.902.586l-.004.066q0 .211.148.348.149.137.406.137z" class="B"/><path d="M15.502 23.386l-.016 1.086q-.23-.031-.406-.031-.641 0-.84.434v2.766h-1.129v-4.227h1.066l.031.504q.34-.582.941-.582.188 0 .351.051z" class="B"/></g></symbol></svg>